# File created by Blade
# Date/Time:  Thu Jan 22 15:33:09 2015
#---------------------------------------------------------
:version 1.10
:name HOM
:units
  mass 1.0
  length 1.000000
  angle deg
:documentation
     Acclaim Skeleton File
:root
   axis xyz
   order TX TY TZ RX RY RZ
   position 0.000000 0.000000 0.000000
   orientation 0 0 0
:bonedata
   begin
      id 1
      name RightUpLeg_dum
      direction -1.000000 0.000000 0.000000
      length 3.693983
      axis 0.0 0.0 0.0 xyz
   end
   begin
      id 2
      name LeftUpLeg_dum
      direction 1.000000 0.000000 0.000000
      length 3.693983
      axis 0.0 0.0 0.0 xyz
   end
   begin
      id 3
      name Spine_dum
      direction 0.000000 1.000000 0.000000
      length 2.392956
      axis 0.0 0.0 0.0 xyz
   end
   begin
      id 4
      name RightUpLeg
      direction 0.000000 -1.000000 0.000000
      length 15.795667
      axis 0.0 0.0 0.0 xyz
      dof rx ry rz
   end
   begin
      id 5
      name RightLeg
      direction 0.000000 -1.000000 0.000000
      length 14.766989
      axis 0.0 0.0 0.0 xyz
      dof rx ry rz
   end
   begin
      id 6
      name RightFoot
      direction 0.000000 -0.258819 0.965926
      length 4.962790
      axis 15.0 0.0 0.0 xyz
      dof rx ry rz
   end
   begin
      id 7
      name RightToeBase
      direction 0.000000 0.000000 1.000000
      length 2.952750
      axis 0.0 0.0 0.0 xyz
      dof rx ry rz
   end
   begin
      id 8
      name LeftUpLeg
      direction 0.000000 -1.000000 0.000000
      length 15.795667
      axis 0.0 0.0 0.0 xyz
      dof rx ry rz
   end
   begin
      id 9
      name LeftLeg
      direction 0.000000 -1.000000 0.000000
      length 14.766989
      axis 0.0 0.0 0.0 xyz
      dof rx ry rz
   end
   begin
      id 10
      name LeftFoot
      direction 0.000000 -0.258819 0.965926
      length 4.962790
      axis 15.0 0.0 0.0 xyz
      dof rx ry rz
   end
   begin
      id 11
      name LeftToeBase
      direction 0.000000 0.000000 1.000000
      length 2.952750
      axis 0.0 0.0 0.0 xyz
      dof rx ry rz
   end
   begin
      id 12
      name Spine
      direction 0.000000 1.000000 0.000000
      length 0.000000
      axis 0.0 0.0 0.0 xyz
      dof rx ry rz
   end
   begin
      id 13
      name Spine_dum1
      direction 0.000000 1.000000 0.000000
      length 13.207411
      axis 0.0 0.0 0.0 xyz
   end
   begin
      id 14
      name Spine_dum2
      direction 0.000000 1.000000 0.000000
      length 13.207411
      axis 0.0 0.0 0.0 xyz
   end
   begin
      id 15
      name Spine_dum3
      direction 0.000000 1.000000 0.000000
      length 19.250100
      axis 0.0 0.0 0.0 xyz
   end
   begin
      id 16
      name RightShoulder
      direction -1.000000 0.000000 0.000000
      length 8.140465
      axis 0.0 0.0 90.0 xyz
      dof rx ry rz
   end
   begin
      id 17
      name RightArm
      direction -1.000000 0.000000 0.000000
      length 10.649840
      axis 0.0 0.0 90.0 xyz
      dof rx ry rz
   end
   begin
      id 18
      name RightForeArm
      direction -1.000000 0.000000 0.000000
      length 8.304624
      axis 0.0 0.0 90.0 xyz
      dof ry rz rx
   end
   begin
      id 19
      name RightHand
      direction -1.000000 0.000000 0.000000
      length 0.000000
      axis 0.0 0.0 90.0 xyz
      dof rx ry rz
   end
   begin
      id 20
      name RightHand_dum1
      direction -1.000000 0.000000 0.000000
      length 3.937000
      axis 0.0 0.0 90.0 xyz
   end
   begin
      id 21
      name RightHand_dum2
      direction 0.000000 0.000000 0.000000
      length 0.000000
      axis 0.0 0.0 90.0 xyz
   end
   begin
      id 22
      name RightHandThumb1
      direction 0.000000 0.000000 1.000000
      length 3.937000
      axis 0.0 0.0 90.0 xyz
      dof rx rz ry
   end
   begin
      id 23
      name LeftShoulder
      direction 1.000000 0.000000 0.000000
      length 8.140465
      axis 0.0 0.0 -90.0 xyz
      dof rx ry rz
   end
   begin
      id 24
      name LeftArm
      direction 1.000000 0.000000 0.000000
      length 10.649840
      axis 0.0 0.0 -90.0 xyz
      dof rx ry rz
   end
   begin
      id 25
      name LeftForeArm
      direction 1.000000 0.000000 0.000000
      length 8.304624
      axis 0.0 0.0 -90.0 xyz
      dof ry rz rx
   end
   begin
      id 26
      name LeftHand
      direction 1.000000 0.000000 0.000000
      length 0.000000
      axis 0.0 0.0 -90.0 xyz
      dof rx ry rz
   end
   begin
      id 27
      name LeftHand_dum1
      direction 1.000000 0.000000 0.000000
      length 3.937000
      axis 0.0 0.0 -90.0 xyz
   end
   begin
      id 28
      name LeftHand_dum2
      direction 0.000000 0.000000 0.000000
      length 0.000000
      axis 0.0 0.0 -90.0 xyz
   end
   begin
      id 29
      name LeftHandThumb1
      direction 0.000000 0.000000 1.000000
      length 3.937000
      axis 0.0 0.0 -90.0 xyz
      dof rx rz ry
   end
   begin
      id 30
      name Head
      direction 0.000000 1.000000 0.000000
      length 4.527550
      axis 0.0 0.0 0.0 xyz
      dof rx ry rz
   end
:hierarchy
   begin
      root RightUpLeg_dum LeftUpLeg_dum Spine_dum
      RightUpLeg_dum RightUpLeg
      LeftUpLeg_dum LeftUpLeg
      Spine_dum Spine
      RightUpLeg RightLeg
      RightLeg RightFoot
      RightFoot RightToeBase
      LeftUpLeg LeftLeg
      LeftLeg LeftFoot
      LeftFoot LeftToeBase
      Spine Spine_dum1 Spine_dum2 Spine_dum3
      Spine_dum1 RightShoulder
      Spine_dum2 LeftShoulder
      Spine_dum3 Head
      RightShoulder RightArm
      RightArm RightForeArm
      RightForeArm RightHand
      RightHand RightHand_dum1 RightHand_dum2
      RightHand_dum2 RightHandThumb1
      LeftShoulder LeftArm
      LeftArm LeftForeArm
      LeftForeArm LeftHand
      LeftHand LeftHand_dum1 LeftHand_dum2
      LeftHand_dum2 LeftHandThumb1
   end

# File created by Blade
# Date/Time:  Thu Jan 22 15:33:01 2015
# Frame Rate: 120.000 fps
#------------------------------------------------------
:FULLY-SPECIFIED
:DEGREES
1225
root 10.992659 19.499487 5.431878 215.800994 -81.215008 -441.179543
RightUpLeg -112.078998 -0.421991 -6.009365
RightLeg 55.736312 -0.000000 -0.000000
RightFoot 57.475226 0.924649 10.264349
RightToeBase 42.709590 -0.000000 -0.000000
LeftUpLeg -110.209111 22.923811 4.613291
LeftLeg 61.346555 -0.000000 -0.000000
LeftFoot 44.665591 -12.219614 -20.013275
LeftToeBase 49.581906 -0.000000 -0.000000
Spine 55.233477 14.969679 -0.303387
RightShoulder -165.941012 50.040408 173.896163
RightArm 158.092209 44.851844 97.379417
RightForeArm 52.015977 -0.000000 111.847757
RightHand 5.594912 0.000000 9.956168
RightHandThumb1 -24.326973 -0.000000 -32.862282
LeftShoulder -13.259372 51.771641 23.723357
LeftArm 13.430430 55.193951 -52.186804
LeftForeArm -23.551400 -0.000000 109.020440
LeftHand -16.243829 -0.000000 -10.597039
LeftHandThumb1 -26.253704 0.000000 33.147579
Head 101.486519 5.693565 -31.995422
1226
root 10.967431 19.511653 5.433688 216.163682 -81.152026 -440.631969
RightUpLeg -112.859429 -0.398166 -6.038810
RightLeg 55.509404 -0.000000 -0.000000
RightFoot 57.537000 0.831626 10.268672
RightToeBase 42.621423 -0.000000 -0.000000
LeftUpLeg -111.093422 23.073490 4.324305
LeftLeg 61.217730 -0.000000 -0.000000
LeftFoot 44.754858 -12.124169 -20.091316
LeftToeBase 49.404401 -0.000000 -0.000000
Spine 54.310927 15.108390 -0.483887
RightShoulder -165.765223 50.204633 174.210419
RightArm 158.244340 44.796483 97.583405
RightForeArm 51.916371 -0.000000 111.840908
RightHand 5.601787 -0.000000 10.022783
RightHandThumb1 -24.326973 -0.000000 -32.862282
LeftShoulder -13.251856 51.857742 23.663177
LeftArm 13.497508 55.135136 -52.066313
LeftForeArm -23.436165 -0.000000 108.988496
LeftHand -16.247416 0.000000 -10.546187
LeftHandThumb1 -26.253704 0.000000 33.147579
Head 101.612687 5.689894 -31.941585
1227
root 10.940711 19.521469 5.437238 216.294911 -81.160563 -440.125364
RightUpLeg -113.365159 -0.409167 -6.022632
RightLeg 55.313359 -0.000000 -0.000000
RightFoot 57.584436 0.741932 10.247517
RightToeBase 42.570697 -0.000000 -0.000000
LeftUpLeg -111.673873 23.131280 4.201229
LeftLeg 61.071866 -0.000000 -0.000000
LeftFoot 44.821425 -12.042695 -20.147784
LeftToeBase 49.239570 -0.000000 -0.000000
Spine 53.681520 15.149526 -0.559195
RightShoulder -165.671867 50.373460 174.410660
RightArm 158.397274 44.731787 97.745373
RightForeArm 51.835741 0.000000 111.845178
RightHand 5.551097 0.000000 10.079248
RightHandThumb1 -24.326973 -0.000000 -32.862282
LeftShoulder -13.193912 51.977613 23.610087
LeftArm 13.455759 55.029307 -52.074531
LeftForeArm -23.318391 -0.000000 108.987235
LeftHand -16.187606 -0.000000 -10.613535
LeftHandThumb1 -26.253704 0.000000 33.147579
Head 101.660229 5.712877 -31.924988
1228
root 10.934057 19.557050 5.476256 216.239552 -81.806070 -437.462347
RightUpLeg -115.792693 -1.006201 -5.247729
RightLeg 55.196767 -0.000000 -0.000000
RightFoot 57.544097 0.789304 10.223114
RightToeBase 42.569113 -0.000000 -0.000000
LeftUpLeg -114.502371 22.903847 4.051925
LeftLeg 60.907591 -0.000000 -0.000000
LeftFoot 45.104679 -11.733380 -20.266713
LeftToeBase 49.153315 -0.000000 -0.000000
Spine 50.805239 14.642736 -0.526908
RightShoulder -165.535593 50.623956 174.792136
RightArm 158.454808 44.552521 98.153055
RightForeArm 51.703050 -0.000000 111.817495
RightHand 5.685723 -0.000000 10.055789
RightHandThumb1 -24.326973 -0.000000 -32.862282
LeftShoulder -13.548897 52.491542 22.851601
LeftArm 13.729583 54.833185 -51.686827
LeftForeArm -23.170116 -0.000000 108.867868
LeftHand -16.223820 -0.000000 -10.574368
LeftHandThumb1 -26.253704 0.000000 33.147579
Head 102.019890 6.217090 -32.086015
1229
root 10.899520 19.559566 5.483569 216.117238 -81.868958 -437.044316
RightUpLeg -115.925029 -1.044473 -5.197757
RightLeg 54.997197 -0.000000 -0.000000
RightFoot 57.545100 0.713094 10.225747
RightToeBase 42.664936 -0.000000 -0.000000
LeftUpLeg -114.656190 22.863958 4.157338
LeftLeg 60.732746 -0.000000 -0.000000
LeftFoot 45.134973 -11.623770 -20.346807
LeftToeBase 49.071792 -0.000000 -0.000000
Spine 50.585825 14.595209 -0.502094
RightShoulder -165.477175 50.789607 174.922961
RightArm 158.681959 44.506186 98.377099
RightForeArm 51.687760 0.000000 111.826564
RightHand 5.724381 -0.000000 10.292039
RightHandThumb1 -24.326973 -0.000000 -32.862282
LeftShoulder -13.504733 52.464852 22.839005
LeftArm 13.576995 54.870746 -51.855110
LeftForeArm -23.068237 -0.000000 108.843902
LeftHand -16.212020 -0.000000 -10.438320
LeftHandThumb1 -26.253704 0.000000 33.147579
Head 102.004285 6.173809 -32.057280
1230
root 10.874120 19.570880 5.487154 216.341357 -81.828158 -436.648785
RightUpLeg -116.420766 -1.025781 -5.243358
RightLeg 54.784323 -0.000000 -0.000000
RightFoot 57.613538 0.650215 10.226216
RightToeBase 42.558810 -0.000000 -0.000000
LeftUpLeg -115.213394 22.950112 3.994012
LeftLeg 60.590697 -0.000000 -0.000000
LeftFoot 45.176492 -11.534389 -20.407899
LeftToeBase 48.941788 -0.000000 -0.000000
Spine 49.957237 14.681878 -0.615651
RightShoulder -165.309242 51.134183 175.184145
RightArm 159.072173 44.456964 98.693667
RightForeArm 51.738051 -0.000000 111.805769
RightHand 5.731324 0.000000 10.305566
RightHandThumb1 -24.326973 -0.000000 -32.862282
LeftShoulder -13.373508 52.499618 22.935855
LeftArm 13.477893 54.893802 -51.966263
LeftForeArm -23.050333 0.000000 108.798087
LeftHand -16.196940 -0.000000 -10.501906
LeftHandThumb1 -26.253704 0.000000 33.147579
Head 102.061468 6.123615 -31.987619
1231
root 10.851641 19.600163 5.508530 216.436952 -81.991239 -435.667930
RightUpLeg -117.355312 -1.195972 -5.043886
RightLeg 54.548418 -0.000000 -0.000000
RightFoot 57.722846 0.638732 10.215092
RightToeBase 42.468451 -0.000000 -0.000000
LeftUpLeg -116.284114 22.903344 3.914294
LeftLeg 60.403540 -0.000000 -0.000000
LeftFoot 45.316447 -11.299740 -20.513647
LeftToeBase 48.638775 -0.000000 -0.000000
Spine 48.798346 14.530170 -0.685897
RightShoulder -165.221878 51.510258 175.321846
RightArm 159.447173 44.439228 99.070030
RightForeArm 51.789611 -0.000000 111.818225
RightHand 5.713443 0.000000 10.213457
RightHandThumb1 -24.326973 -0.000000 -32.862282
LeftShoulder -13.386046 52.583693 22.856135
LeftArm 13.304156 54.948005 -52.152479
LeftForeArm -23.052500 -0.000000 108.756806
LeftHand -16.197339 0.000000 -10.572375
LeftHandThumb1 -26.253704 0.000000 33.147579
Head 102.112290 6.222441 -32.011987
1232
root 10.823133 19.606029 5.513053 216.218617 -82.002949 -434.994243
RightUpLeg -117.669882 -1.185460 -5.012083
RightLeg 54.359520 -0.000000 -0.000000
RightFoot 57.718820 0.571882 10.227297
RightToeBase 42.498388 -0.000000 -0.000000
LeftUpLeg -116.636704 22.954010 3.915389
LeftLeg 60.261496 -0.000000 -0.000000
LeftFoot 45.321258 -11.225807 -20.614294
LeftToeBase 48.621837 -0.000000 -0.000000
Spine 48.380841 14.571297 -0.691589
RightShoulder -165.107971 51.679057 175.498778
RightArm 159.638774 44.423209 99.238017
RightForeArm 51.846392 -0.000000 111.818379
RightHand 5.746718 -0.000000 10.245739
RightHandThumb1 -24.326973 -0.000000 -32.862282
LeftShoulder -13.329838 52.609038 22.852472
LeftArm 13.221973 54.936731 -52.245077
LeftForeArm -23.108591 -0.000000 108.722025
LeftHand -16.173465 -0.000000 -10.568934
LeftHandThumb1 -26.253704 0.000000 33.147579
Head 102.126942 6.205287 -32.024284
